<svg height="600" viewBox="0 0 800 600" width="800" xmlns="http://www.w3.org/2000/svg">
<g class="g-chart">
<g class="g-title" transform="translate(400,25)">
<text dy=".35em" fill="#777" font-family="sans-serif" font-size="24px" text-anchor="middle" x="0" y="0">
带宽测试
</text>
</g>
<g class="x-axis" transform="translate(110,550)">
<line shape-rendering="crispEdges" stroke="#bbbbbb" stroke-width="1" x1="0" x2="650" y1="0" y2="0"/>
<g class="tick" transform="translate(0,0)">
<line shape-rendering="crispEdges" stroke="#bbbbbb" stroke-width="1px" x1="0" x2="0" y1="0" y2="6"/>
<text dy=".35em" fill="#777" font-family="sans-serif" font-size="12px" text-anchor="middle" transform="rotate(0,0,16)" x="0" y="16">
0
</text>
</g>
<g class="tick" transform="translate(43.333336,0)">
<line shape-rendering="crispEdges" stroke="#bbbbbb" stroke-width="1px" x1="0" x2="0" y1="0" y2="6"/>
<text dy=".35em" fill="#777" font-family="sans-serif" font-size="12px" text-anchor="middle" transform="rotate(0,0,16)" x="0" y="16">
2
</text>
</g>
<g class="tick" transform="translate(86.66667,0)">
<line shape-rendering="crispEdges" stroke="#bbbbbb" stroke-width="1px" x1="0" x2="0" y1="0" y2="6"/>
<text dy=".35em" fill="#777" font-family="sans-serif" font-size="12px" text-anchor="middle" transform="rotate(0,0,16)" x="0" y="16">
4
</text>
</g>
<g class="tick" transform="translate(130,0)">
<line shape-rendering="crispEdges" stroke="#bbbbbb" stroke-width="1px" x1="0" x2="0" y1="0" y2="6"/>
<text dy=".35em" fill="#777" font-family="sans-serif" font-size="12px" text-anchor="middle" transform="rotate(0,0,16)" x="0" y="16">
6
</text>
</g>
<g class="tick" transform="translate(173.33334,0)">
<line shape-rendering="crispEdges" stroke="#bbbbbb" stroke-width="1px" x1="0" x2="0" y1="0" y2="6"/>
<text dy=".35em" fill="#777" font-family="sans-serif" font-size="12px" text-anchor="middle" transform="rotate(0,0,16)" x="0" y="16">
8
</text>
</g>
<g class="tick" transform="translate(216.66667,0)">
<line shape-rendering="crispEdges" stroke="#bbbbbb" stroke-width="1px" x1="0" x2="0" y1="0" y2="6"/>
<text dy=".35em" fill="#777" font-family="sans-serif" font-size="12px" text-anchor="middle" transform="rotate(0,0,16)" x="0" y="16">
10
</text>
</g>
<g class="tick" transform="translate(260,0)">
<line shape-rendering="crispEdges" stroke="#bbbbbb" stroke-width="1px" x1="0" x2="0" y1="0" y2="6"/>
<text dy=".35em" fill="#777" font-family="sans-serif" font-size="12px" text-anchor="middle" transform="rotate(0,0,16)" x="0" y="16">
12
</text>
</g>
<g class="tick" transform="translate(303.33334,0)">
<line shape-rendering="crispEdges" stroke="#bbbbbb" stroke-width="1px" x1="0" x2="0" y1="0" y2="6"/>
<text dy=".35em" fill="#777" font-family="sans-serif" font-size="12px" text-anchor="middle" transform="rotate(0,0,16)" x="0" y="16">
14
</text>
</g>
<g class="tick" transform="translate(346.6667,0)">
<line shape-rendering="crispEdges" stroke="#bbbbbb" stroke-width="1px" x1="0" x2="0" y1="0" y2="6"/>
<text dy=".35em" fill="#777" font-family="sans-serif" font-size="12px" text-anchor="middle" transform="rotate(0,0,16)" x="0" y="16">
16
</text>
</g>
<g class="tick" transform="translate(390.00003,0)">
<line shape-rendering="crispEdges" stroke="#bbbbbb" stroke-width="1px" x1="0" x2="0" y1="0" y2="6"/>
<text dy=".35em" fill="#777" font-family="sans-serif" font-size="12px" text-anchor="middle" transform="rotate(0,0,16)" x="0" y="16">
18
</text>
</g>
<g class="tick" transform="translate(433.33334,0)">
<line shape-rendering="crispEdges" stroke="#bbbbbb" stroke-width="1px" x1="0" x2="0" y1="0" y2="6"/>
<text dy=".35em" fill="#777" font-family="sans-serif" font-size="12px" text-anchor="middle" transform="rotate(0,0,16)" x="0" y="16">
20
</text>
</g>
<g class="tick" transform="translate(476.6667,0)">
<line shape-rendering="crispEdges" stroke="#bbbbbb" stroke-width="1px" x1="0" x2="0" y1="0" y2="6"/>
<text dy=".35em" fill="#777" font-family="sans-serif" font-size="12px" text-anchor="middle" transform="rotate(0,0,16)" x="0" y="16">
22
</text>
</g>
<g class="tick" transform="translate(520,0)">
<line shape-rendering="crispEdges" stroke="#bbbbbb" stroke-width="1px" x1="0" x2="0" y1="0" y2="6"/>
<text dy=".35em" fill="#777" font-family="sans-serif" font-size="12px" text-anchor="middle" transform="rotate(0,0,16)" x="0" y="16">
24
</text>
</g>
<g class="tick" transform="translate(563.3333,0)">
<line shape-rendering="crispEdges" stroke="#bbbbbb" stroke-width="1px" x1="0" x2="0" y1="0" y2="6"/>
<text dy=".35em" fill="#777" font-family="sans-serif" font-size="12px" text-anchor="middle" transform="rotate(0,0,16)" x="0" y="16">
26
</text>
</g>
<g class="tick" transform="translate(606.6667,0)">
<line shape-rendering="crispEdges" stroke="#bbbbbb" stroke-width="1px" x1="0" x2="0" y1="0" y2="6"/>
<text dy=".35em" fill="#777" font-family="sans-serif" font-size="12px" text-anchor="middle" transform="rotate(0,0,16)" x="0" y="16">
28
</text>
</g>
<g class="tick" transform="translate(650,0)">
<line shape-rendering="crispEdges" stroke="#bbbbbb" stroke-width="1px" x1="0" x2="0" y1="0" y2="6"/>
<text dy=".35em" fill="#777" font-family="sans-serif" font-size="12px" text-anchor="middle" transform="rotate(0,0,16)" x="0" y="16">
30
</text>
</g>
<text fill="#777" font-family="sans-serif" font-size="14px" text-anchor="middle" transform="rotate(0)" x="325" y="42">
时间（秒）
</text>
</g>
<g class="y-axis" transform="translate(110,90)">
<line shape-rendering="crispEdges" stroke="#bbbbbb" stroke-width="1" x1="0" x2="0" y1="0" y2="460"/>
<g class="tick" transform="translate(0,460)">
<line shape-rendering="crispEdges" stroke="#bbbbbb" stroke-width="1px" x1="0" x2="-6" y1="0" y2="0"/>
<text dy=".35em" fill="#777" font-family="sans-serif" font-size="12px" text-anchor="end" transform="rotate(0,-12,0)" x="-12" y="0">
0
</text>
</g>
<g class="tick" transform="translate(0,398.59534)">
<line shape-rendering="crispEdges" stroke="#bbbbbb" stroke-width="1px" x1="0" x2="-6" y1="0" y2="0"/>
<text dy=".35em" fill="#777" font-family="sans-serif" font-size="12px" text-anchor="end" transform="rotate(0,-12,0)" x="-12" y="0">
500000
</text>
</g>
<g class="tick" transform="translate(0,337.19067)">
<line shape-rendering="crispEdges" stroke="#bbbbbb" stroke-width="1px" x1="0" x2="-6" y1="0" y2="0"/>
<text dy=".35em" fill="#777" font-family="sans-serif" font-size="12px" text-anchor="end" transform="rotate(0,-12,0)" x="-12" y="0">
1000000
</text>
</g>
<g class="tick" transform="translate(0,275.786)">
<line shape-rendering="crispEdges" stroke="#bbbbbb" stroke-width="1px" x1="0" x2="-6" y1="0" y2="0"/>
<text dy=".35em" fill="#777" font-family="sans-serif" font-size="12px" text-anchor="end" transform="rotate(0,-12,0)" x="-12" y="0">
1500000
</text>
</g>
<g class="tick" transform="translate(0,214.38136)">
<line shape-rendering="crispEdges" stroke="#bbbbbb" stroke-width="1px" x1="0" x2="-6" y1="0" y2="0"/>
<text dy=".35em" fill="#777" font-family="sans-serif" font-size="12px" text-anchor="end" transform="rotate(0,-12,0)" x="-12" y="0">
2000000
</text>
</g>
<g class="tick" transform="translate(0,152.97668)">
<line shape-rendering="crispEdges" stroke="#bbbbbb" stroke-width="1px" x1="0" x2="-6" y1="0" y2="0"/>
<text dy=".35em" fill="#777" font-family="sans-serif" font-size="12px" text-anchor="end" transform="rotate(0,-12,0)" x="-12" y="0">
2500000
</text>
</g>
<g class="tick" transform="translate(0,91.57202)">
<line shape-rendering="crispEdges" stroke="#bbbbbb" stroke-width="1px" x1="0" x2="-6" y1="0" y2="0"/>
<text dy=".35em" fill="#777" font-family="sans-serif" font-size="12px" text-anchor="end" transform="rotate(0,-12,0)" x="-12" y="0">
3000000
</text>
</g>
<g class="tick" transform="translate(0,30.167389)">
<line shape-rendering="crispEdges" stroke="#bbbbbb" stroke-width="1px" x1="0" x2="-6" y1="0" y2="0"/>
<text dy=".35em" fill="#777" font-family="sans-serif" font-size="12px" text-anchor="end" transform="rotate(0,-12,0)" x="-12" y="0">
3500000
</text>
</g>
<text fill="#777" font-family="sans-serif" font-size="14px" text-anchor="middle" transform="rotate(-90)" x="-230" y="-42">
带宽（个）
</text>
</g>
<g class="g-view" transform="translate(110,90)">
<g>
<g class="line">
<path d="M21.666668,76.66669 L43.333336,104.94046 L65,99.29907 L86.66667,102.98358 L108.333336,98.02811 L130,110.96216 L151.66667,116.62207 L173.33334,113.74454 L195.00002,110.92099 L216.66667,111.57681 L238.33334,101.41507 L260,102.05838 L281.66666,95.497986 L303.33334,100.161194 L325,90.4595 L346.6667,90.143005 L368.33334,87.35916 L390.00003,89.120026 L411.66666,90.42673 L433.33334,90.108765 L455,89.85947 L476.6667,101.054016 L498.3333,85.62106 L520,86.46121 L541.6666,86.28964 L563.3333,84.23135 L585,89.327576 L606.6667,85.95816 L628.3333,86.000305 L650,90.20676" fill="none" stroke="#FF4700" stroke-width="2"/>
<g class="scatter-point" transform="translate(21.666668,76.66669)">
<circle cx="0" cy="0" fill="#FF4700" r="5"/>
</g>
<g class="scatter-point" transform="translate(43.333336,104.94046)">
<circle cx="0" cy="0" fill="#FF4700" r="5"/>
</g>
<g class="scatter-point" transform="translate(65,99.29907)">
<circle cx="0" cy="0" fill="#FF4700" r="5"/>
</g>
<g class="scatter-point" transform="translate(86.66667,102.98358)">
<circle cx="0" cy="0" fill="#FF4700" r="5"/>
</g>
<g class="scatter-point" transform="translate(108.333336,98.02811)">
<circle cx="0" cy="0" fill="#FF4700" r="5"/>
</g>
<g class="scatter-point" transform="translate(130,110.96216)">
<circle cx="0" cy="0" fill="#FF4700" r="5"/>
</g>
<g class="scatter-point" transform="translate(151.66667,116.62207)">
<circle cx="0" cy="0" fill="#FF4700" r="5"/>
</g>
<g class="scatter-point" transform="translate(173.33334,113.74454)">
<circle cx="0" cy="0" fill="#FF4700" r="5"/>
</g>
<g class="scatter-point" transform="translate(195.00002,110.92099)">
<circle cx="0" cy="0" fill="#FF4700" r="5"/>
</g>
<g class="scatter-point" transform="translate(216.66667,111.57681)">
<circle cx="0" cy="0" fill="#FF4700" r="5"/>
</g>
<g class="scatter-point" transform="translate(238.33334,101.41507)">
<circle cx="0" cy="0" fill="#FF4700" r="5"/>
</g>
<g class="scatter-point" transform="translate(260,102.05838)">
<circle cx="0" cy="0" fill="#FF4700" r="5"/>
</g>
<g class="scatter-point" transform="translate(281.66666,95.497986)">
<circle cx="0" cy="0" fill="#FF4700" r="5"/>
</g>
<g class="scatter-point" transform="translate(303.33334,100.161194)">
<circle cx="0" cy="0" fill="#FF4700" r="5"/>
</g>
<g class="scatter-point" transform="translate(325,90.4595)">
<circle cx="0" cy="0" fill="#FF4700" r="5"/>
</g>
<g class="scatter-point" transform="translate(346.6667,90.143005)">
<circle cx="0" cy="0" fill="#FF4700" r="5"/>
</g>
<g class="scatter-point" transform="translate(368.33334,87.35916)">
<circle cx="0" cy="0" fill="#FF4700" r="5"/>
</g>
<g class="scatter-point" transform="translate(390.00003,89.120026)">
<circle cx="0" cy="0" fill="#FF4700" r="5"/>
</g>
<g class="scatter-point" transform="translate(411.66666,90.42673)">
<circle cx="0" cy="0" fill="#FF4700" r="5"/>
</g>
<g class="scatter-point" transform="translate(433.33334,90.108765)">
<circle cx="0" cy="0" fill="#FF4700" r="5"/>
</g>
<g class="scatter-point" transform="translate(455,89.85947)">
<circle cx="0" cy="0" fill="#FF4700" r="5"/>
</g>
<g class="scatter-point" transform="translate(476.6667,101.054016)">
<circle cx="0" cy="0" fill="#FF4700" r="5"/>
</g>
<g class="scatter-point" transform="translate(498.3333,85.62106)">
<circle cx="0" cy="0" fill="#FF4700" r="5"/>
</g>
<g class="scatter-point" transform="translate(520,86.46121)">
<circle cx="0" cy="0" fill="#FF4700" r="5"/>
</g>
<g class="scatter-point" transform="translate(541.6666,86.28964)">
<circle cx="0" cy="0" fill="#FF4700" r="5"/>
</g>
<g class="scatter-point" transform="translate(563.3333,84.23135)">
<circle cx="0" cy="0" fill="#FF4700" r="5"/>
</g>
<g class="scatter-point" transform="translate(585,89.327576)">
<circle cx="0" cy="0" fill="#FF4700" r="5"/>
</g>
<g class="scatter-point" transform="translate(606.6667,85.95816)">
<circle cx="0" cy="0" fill="#FF4700" r="5"/>
</g>
<g class="scatter-point" transform="translate(628.3333,86.000305)">
<circle cx="0" cy="0" fill="#FF4700" r="5"/>
</g>
<g class="scatter-point" transform="translate(650,90.20676)">
<circle cx="0" cy="0" fill="#FF4700" r="5"/>
</g>
</g>
</g>
<g>
<g class="line">
<path d="M21.666668,259.74664 L43.333336,265.2647 L65,261.57895 L86.66667,259.39624 L108.333336,260.51038 L130,263.62762 L151.66667,261.1819 L173.33334,259.46405 L195.00002,261.4242 L216.66667,260.78867 L238.33334,253.22116 L260,253.54733 L281.66666,259.20935 L303.33334,258.0547 L325,252.4121 L346.6667,252.81293 L368.33334,254.2794 L390.00003,255.02583 L411.66666,254.79716 L433.33334,252.64836 L455,253.25272 L476.6667,257.01843 L498.3333,253.8778 L520,253.98552 L541.6666,252.02242 L563.3333,257.6089 L585,253.71411 L606.6667,254.5072 L628.3333,255.26027 L650,258.13757" fill="none" stroke="#47FF00" stroke-width="2"/>
<g class="scatter-point" transform="translate(21.666668,259.74664)">
<rect fill="#47FF00" height="10" width="10" x="-5" y="-5"/>
</g>
<g class="scatter-point" transform="translate(43.333336,265.2647)">
<rect fill="#47FF00" height="10" width="10" x="-5" y="-5"/>
</g>
<g class="scatter-point" transform="translate(65,261.57895)">
<rect fill="#47FF00" height="10" width="10" x="-5" y="-5"/>
</g>
<g class="scatter-point" transform="translate(86.66667,259.39624)">
<rect fill="#47FF00" height="10" width="10" x="-5" y="-5"/>
</g>
<g class="scatter-point" transform="translate(108.333336,260.51038)">
<rect fill="#47FF00" height="10" width="10" x="-5" y="-5"/>
</g>
<g class="scatter-point" transform="translate(130,263.62762)">
<rect fill="#47FF00" height="10" width="10" x="-5" y="-5"/>
</g>
<g class="scatter-point" transform="translate(151.66667,261.1819)">
<rect fill="#47FF00" height="10" width="10" x="-5" y="-5"/>
</g>
<g class="scatter-point" transform="translate(173.33334,259.46405)">
<rect fill="#47FF00" height="10" width="10" x="-5" y="-5"/>
</g>
<g class="scatter-point" transform="translate(195.00002,261.4242)">
<rect fill="#47FF00" height="10" width="10" x="-5" y="-5"/>
</g>
<g class="scatter-point" transform="translate(216.66667,260.78867)">
<rect fill="#47FF00" height="10" width="10" x="-5" y="-5"/>
</g>
<g class="scatter-point" transform="translate(238.33334,253.22116)">
<rect fill="#47FF00" height="10" width="10" x="-5" y="-5"/>
</g>
<g class="scatter-point" transform="translate(260,253.54733)">
<rect fill="#47FF00" height="10" width="10" x="-5" y="-5"/>
</g>
<g class="scatter-point" transform="translate(281.66666,259.20935)">
<rect fill="#47FF00" height="10" width="10" x="-5" y="-5"/>
</g>
<g class="scatter-point" transform="translate(303.33334,258.0547)">
<rect fill="#47FF00" height="10" width="10" x="-5" y="-5"/>
</g>
<g class="scatter-point" transform="translate(325,252.4121)">
<rect fill="#47FF00" height="10" width="10" x="-5" y="-5"/>
</g>
<g class="scatter-point" transform="translate(346.6667,252.81293)">
<rect fill="#47FF00" height="10" width="10" x="-5" y="-5"/>
</g>
<g class="scatter-point" transform="translate(368.33334,254.2794)">
<rect fill="#47FF00" height="10" width="10" x="-5" y="-5"/>
</g>
<g class="scatter-point" transform="translate(390.00003,255.02583)">
<rect fill="#47FF00" height="10" width="10" x="-5" y="-5"/>
</g>
<g class="scatter-point" transform="translate(411.66666,254.79716)">
<rect fill="#47FF00" height="10" width="10" x="-5" y="-5"/>
</g>
<g class="scatter-point" transform="translate(433.33334,252.64836)">
<rect fill="#47FF00" height="10" width="10" x="-5" y="-5"/>
</g>
<g class="scatter-point" transform="translate(455,253.25272)">
<rect fill="#47FF00" height="10" width="10" x="-5" y="-5"/>
</g>
<g class="scatter-point" transform="translate(476.6667,257.01843)">
<rect fill="#47FF00" height="10" width="10" x="-5" y="-5"/>
</g>
<g class="scatter-point" transform="translate(498.3333,253.8778)">
<rect fill="#47FF00" height="10" width="10" x="-5" y="-5"/>
</g>
<g class="scatter-point" transform="translate(520,253.98552)">
<rect fill="#47FF00" height="10" width="10" x="-5" y="-5"/>
</g>
<g class="scatter-point" transform="translate(541.6666,252.02242)">
<rect fill="#47FF00" height="10" width="10" x="-5" y="-5"/>
</g>
<g class="scatter-point" transform="translate(563.3333,257.6089)">
<rect fill="#47FF00" height="10" width="10" x="-5" y="-5"/>
</g>
<g class="scatter-point" transform="translate(585,253.71411)">
<rect fill="#47FF00" height="10" width="10" x="-5" y="-5"/>
</g>
<g class="scatter-point" transform="translate(606.6667,254.5072)">
<rect fill="#47FF00" height="10" width="10" x="-5" y="-5"/>
</g>
<g class="scatter-point" transform="translate(628.3333,255.26027)">
<rect fill="#47FF00" height="10" width="10" x="-5" y="-5"/>
</g>
<g class="scatter-point" transform="translate(650,258.13757)">
<rect fill="#47FF00" height="10" width="10" x="-5" y="-5"/>
</g>
</g>
</g>
<g>
<g class="line">
<path d="M21.666668,332.90353 L43.333336,330.7239 L65,331.034 L86.66667,332.97327 L108.333336,333.42584 L130,335.46265 L151.66667,332.44827 L173.33334,335.67447 L195.00002,334.7566 L216.66667,332.4172 L238.33334,334.40967 L260,332.0344 L281.66666,331.46234 L303.33334,333.07104 L325,328.7597 L346.6667,326.64514 L368.33334,329.37115 L390.00003,330.5537 L411.66666,329.71085 L433.33334,329.3283 L455,329.82886 L476.6667,327.5462 L498.3333,329.04916 L520,328.8264 L541.6666,323.82584 L563.3333,334.10754 L585,328.89526 L606.6667,327.7879 L628.3333,330.04367 L650,331.14478" fill="none" stroke="#0047FF" stroke-width="2"/>
<g class="scatter-point" transform="translate(21.666668,332.90353)">
<g>
<line stroke="#0047FF" stroke-width="2px" x1="-5" x2="5" y1="-5" y2="5"/>
<line stroke="#0047FF" stroke-width="2px" x1="5" x2="-5" y1="-5" y2="5"/>
</g>
</g>
<g class="scatter-point" transform="translate(43.333336,330.7239)">
<g>
<line stroke="#0047FF" stroke-width="2px" x1="-5" x2="5" y1="-5" y2="5"/>
<line stroke="#0047FF" stroke-width="2px" x1="5" x2="-5" y1="-5" y2="5"/>
</g>
</g>
<g class="scatter-point" transform="translate(65,331.034)">
<g>
<line stroke="#0047FF" stroke-width="2px" x1="-5" x2="5" y1="-5" y2="5"/>
<line stroke="#0047FF" stroke-width="2px" x1="5" x2="-5" y1="-5" y2="5"/>
</g>
</g>
<g class="scatter-point" transform="translate(86.66667,332.97327)">
<g>
<line stroke="#0047FF" stroke-width="2px" x1="-5" x2="5" y1="-5" y2="5"/>
<line stroke="#0047FF" stroke-width="2px" x1="5" x2="-5" y1="-5" y2="5"/>
</g>
</g>
<g class="scatter-point" transform="translate(108.333336,333.42584)">
<g>
<line stroke="#0047FF" stroke-width="2px" x1="-5" x2="5" y1="-5" y2="5"/>
<line stroke="#0047FF" stroke-width="2px" x1="5" x2="-5" y1="-5" y2="5"/>
</g>
</g>
<g class="scatter-point" transform="translate(130,335.46265)">
<g>
<line stroke="#0047FF" stroke-width="2px" x1="-5" x2="5" y1="-5" y2="5"/>
<line stroke="#0047FF" stroke-width="2px" x1="5" x2="-5" y1="-5" y2="5"/>
</g>
</g>
<g class="scatter-point" transform="translate(151.66667,332.44827)">
<g>
<line stroke="#0047FF" stroke-width="2px" x1="-5" x2="5" y1="-5" y2="5"/>
<line stroke="#0047FF" stroke-width="2px" x1="5" x2="-5" y1="-5" y2="5"/>
</g>
</g>
<g class="scatter-point" transform="translate(173.33334,335.67447)">
<g>
<line stroke="#0047FF" stroke-width="2px" x1="-5" x2="5" y1="-5" y2="5"/>
<line stroke="#0047FF" stroke-width="2px" x1="5" x2="-5" y1="-5" y2="5"/>
</g>
</g>
<g class="scatter-point" transform="translate(195.00002,334.7566)">
<g>
<line stroke="#0047FF" stroke-width="2px" x1="-5" x2="5" y1="-5" y2="5"/>
<line stroke="#0047FF" stroke-width="2px" x1="5" x2="-5" y1="-5" y2="5"/>
</g>
</g>
<g class="scatter-point" transform="translate(216.66667,332.4172)">
<g>
<line stroke="#0047FF" stroke-width="2px" x1="-5" x2="5" y1="-5" y2="5"/>
<line stroke="#0047FF" stroke-width="2px" x1="5" x2="-5" y1="-5" y2="5"/>
</g>
</g>
<g class="scatter-point" transform="translate(238.33334,334.40967)">
<g>
<line stroke="#0047FF" stroke-width="2px" x1="-5" x2="5" y1="-5" y2="5"/>
<line stroke="#0047FF" stroke-width="2px" x1="5" x2="-5" y1="-5" y2="5"/>
</g>
</g>
<g class="scatter-point" transform="translate(260,332.0344)">
<g>
<line stroke="#0047FF" stroke-width="2px" x1="-5" x2="5" y1="-5" y2="5"/>
<line stroke="#0047FF" stroke-width="2px" x1="5" x2="-5" y1="-5" y2="5"/>
</g>
</g>
<g class="scatter-point" transform="translate(281.66666,331.46234)">
<g>
<line stroke="#0047FF" stroke-width="2px" x1="-5" x2="5" y1="-5" y2="5"/>
<line stroke="#0047FF" stroke-width="2px" x1="5" x2="-5" y1="-5" y2="5"/>
</g>
</g>
<g class="scatter-point" transform="translate(303.33334,333.07104)">
<g>
<line stroke="#0047FF" stroke-width="2px" x1="-5" x2="5" y1="-5" y2="5"/>
<line stroke="#0047FF" stroke-width="2px" x1="5" x2="-5" y1="-5" y2="5"/>
</g>
</g>
<g class="scatter-point" transform="translate(325,328.7597)">
<g>
<line stroke="#0047FF" stroke-width="2px" x1="-5" x2="5" y1="-5" y2="5"/>
<line stroke="#0047FF" stroke-width="2px" x1="5" x2="-5" y1="-5" y2="5"/>
</g>
</g>
<g class="scatter-point" transform="translate(346.6667,326.64514)">
<g>
<line stroke="#0047FF" stroke-width="2px" x1="-5" x2="5" y1="-5" y2="5"/>
<line stroke="#0047FF" stroke-width="2px" x1="5" x2="-5" y1="-5" y2="5"/>
</g>
</g>
<g class="scatter-point" transform="translate(368.33334,329.37115)">
<g>
<line stroke="#0047FF" stroke-width="2px" x1="-5" x2="5" y1="-5" y2="5"/>
<line stroke="#0047FF" stroke-width="2px" x1="5" x2="-5" y1="-5" y2="5"/>
</g>
</g>
<g class="scatter-point" transform="translate(390.00003,330.5537)">
<g>
<line stroke="#0047FF" stroke-width="2px" x1="-5" x2="5" y1="-5" y2="5"/>
<line stroke="#0047FF" stroke-width="2px" x1="5" x2="-5" y1="-5" y2="5"/>
</g>
</g>
<g class="scatter-point" transform="translate(411.66666,329.71085)">
<g>
<line stroke="#0047FF" stroke-width="2px" x1="-5" x2="5" y1="-5" y2="5"/>
<line stroke="#0047FF" stroke-width="2px" x1="5" x2="-5" y1="-5" y2="5"/>
</g>
</g>
<g class="scatter-point" transform="translate(433.33334,329.3283)">
<g>
<line stroke="#0047FF" stroke-width="2px" x1="-5" x2="5" y1="-5" y2="5"/>
<line stroke="#0047FF" stroke-width="2px" x1="5" x2="-5" y1="-5" y2="5"/>
</g>
</g>
<g class="scatter-point" transform="translate(455,329.82886)">
<g>
<line stroke="#0047FF" stroke-width="2px" x1="-5" x2="5" y1="-5" y2="5"/>
<line stroke="#0047FF" stroke-width="2px" x1="5" x2="-5" y1="-5" y2="5"/>
</g>
</g>
<g class="scatter-point" transform="translate(476.6667,327.5462)">
<g>
<line stroke="#0047FF" stroke-width="2px" x1="-5" x2="5" y1="-5" y2="5"/>
<line stroke="#0047FF" stroke-width="2px" x1="5" x2="-5" y1="-5" y2="5"/>
</g>
</g>
<g class="scatter-point" transform="translate(498.3333,329.04916)">
<g>
<line stroke="#0047FF" stroke-width="2px" x1="-5" x2="5" y1="-5" y2="5"/>
<line stroke="#0047FF" stroke-width="2px" x1="5" x2="-5" y1="-5" y2="5"/>
</g>
</g>
<g class="scatter-point" transform="translate(520,328.8264)">
<g>
<line stroke="#0047FF" stroke-width="2px" x1="-5" x2="5" y1="-5" y2="5"/>
<line stroke="#0047FF" stroke-width="2px" x1="5" x2="-5" y1="-5" y2="5"/>
</g>
</g>
<g class="scatter-point" transform="translate(541.6666,323.82584)">
<g>
<line stroke="#0047FF" stroke-width="2px" x1="-5" x2="5" y1="-5" y2="5"/>
<line stroke="#0047FF" stroke-width="2px" x1="5" x2="-5" y1="-5" y2="5"/>
</g>
</g>
<g class="scatter-point" transform="translate(563.3333,334.10754)">
<g>
<line stroke="#0047FF" stroke-width="2px" x1="-5" x2="5" y1="-5" y2="5"/>
<line stroke="#0047FF" stroke-width="2px" x1="5" x2="-5" y1="-5" y2="5"/>
</g>
</g>
<g class="scatter-point" transform="translate(585,328.89526)">
<g>
<line stroke="#0047FF" stroke-width="2px" x1="-5" x2="5" y1="-5" y2="5"/>
<line stroke="#0047FF" stroke-width="2px" x1="5" x2="-5" y1="-5" y2="5"/>
</g>
</g>
<g class="scatter-point" transform="translate(606.6667,327.7879)">
<g>
<line stroke="#0047FF" stroke-width="2px" x1="-5" x2="5" y1="-5" y2="5"/>
<line stroke="#0047FF" stroke-width="2px" x1="5" x2="-5" y1="-5" y2="5"/>
</g>
</g>
<g class="scatter-point" transform="translate(628.3333,330.04367)">
<g>
<line stroke="#0047FF" stroke-width="2px" x1="-5" x2="5" y1="-5" y2="5"/>
<line stroke="#0047FF" stroke-width="2px" x1="5" x2="-5" y1="-5" y2="5"/>
</g>
</g>
<g class="scatter-point" transform="translate(650,331.14478)">
<g>
<line stroke="#0047FF" stroke-width="2px" x1="-5" x2="5" y1="-5" y2="5"/>
<line stroke="#0047FF" stroke-width="2px" x1="5" x2="-5" y1="-5" y2="5"/>
</g>
</g>
</g>
</g>
</g>
<g class="g-legend" transform="translate(110,602)">
<g class="legend-entry" transform="translate(0,0)">
<line stroke="#FF4700" stroke-dasharray="none" stroke-width="2px" x1="0" x2="14" y1="7" y2="7"/>
<text dy=".35em" fill="#777" font-family="sans-serif" font-size="12px" x="20" y="7">
手写链表实现
</text>
</g>
<g class="legend-entry" transform="translate(205,0)">
<line stroke="#47FF00" stroke-dasharray="none" stroke-width="2px" x1="0" x2="14" y1="7" y2="7"/>
<text dy=".35em" fill="#777" font-family="sans-serif" font-size="12px" x="20" y="7">
Crossbeam GC 链表实现
</text>
</g>
<g class="legend-entry" transform="translate(410,0)">
<line stroke="#0047FF" stroke-dasharray="none" stroke-width="2px" x1="0" x2="14" y1="7" y2="7"/>
<text dy=".35em" fill="#777" font-family="sans-serif" font-size="12px" x="20" y="7">
链表加大锁实现
</text>
</g>
</g>
</g>
</svg>